<?xml version="1.0" encoding="UTF-8" standalone="no"?>
<!-- Created with Inkscape (http://www.inkscape.org/) -->

<svg
   width="16"
   height="16"
   viewBox="0 0 4.2333332 4.2333333"
   version="1.1"
   id="svg10637"
   inkscape:version="1.2.2 (732a01da63, 2022-12-09)"
   sodipodi:docname="2DOZENQ-logo-basic.svg"
   xmlns:inkscape="http://www.inkscape.org/namespaces/inkscape"
   xmlns:sodipodi="http://sodipodi.sourceforge.net/DTD/sodipodi-0.dtd"
   xmlns="http://www.w3.org/2000/svg"
   xmlns:svg="http://www.w3.org/2000/svg">
  <sodipodi:namedview
     id="namedview10639"
     pagecolor="#ffffff"
     bordercolor="#000000"
     borderopacity="0.25"
     inkscape:showpageshadow="2"
     inkscape:pageopacity="0.0"
     inkscape:pagecheckerboard="0"
     inkscape:deskcolor="#d1d1d1"
     inkscape:document-units="mm"
     showgrid="false"
     inkscape:zoom="20.70196"
     inkscape:cx="12.076151"
     inkscape:cy="15.916368"
     inkscape:window-width="1350"
     inkscape:window-height="1230"
     inkscape:window-x="820"
     inkscape:window-y="85"
     inkscape:window-maximized="0"
     inkscape:current-layer="layer1" />
  <defs
     id="defs10634" />
  <g
     inkscape:label="Layer 1"
     inkscape:groupmode="layer"
     id="layer1">
    <g
       id="g12632"
       transform="matrix(0.08988807,0,0,0.08988807,1.9359834,2.0144307)">
      <g
         aria-label="?"
         transform="matrix(0.26458333,0,0,0.26458333,-53.307189,-111.51527)"
         id="text788-0-3"
         style="font-size:192px;font-family:Arial;-inkscape-font-specification:Arial;white-space:pre;stroke:#000000;stroke-width:1.56472"
         inkscape:export-filename="text788-0-3.png"
         inkscape:export-xdpi="8.6292553"
         inkscape:export-ydpi="8.6292553">
        <g
           id="path3971-0-3">
          <path
             style="color:#000000;-inkscape-font-specification:Arial;fill:#000000;stroke:none;-inkscape-stroke:none"
             d="m 206.01562,444.05032 c -0.0625,-2.25 -0.0937,-3.9375 -0.0937,-5.0625 0,-6.625 0.9375,-12.34375 2.8125,-17.15625 1.375,-3.625 3.59375,-7.28125 6.65625,-10.96875 2.25,-2.6875 6.28125,-6.59375 12.09375,-11.71875 5.875,-5.1875 9.6875,-9.3125 11.4375,-12.375 1.75,-3.0625 2.625,-6.40625 2.625,-10.03125 0,-6.5625 -2.5625,-12.3125 -7.6875,-17.25 -5.125,-5 -11.40625,-7.5 -18.84375,-7.5 -7.1875,0 -13.1875,2.25 -18,6.75 -4.8125,4.5 -7.96875,11.53125 -9.46875,21.09375 l -17.34375,-2.0625 c 1.5625,-12.8125 6.1875,-22.625 13.875,-29.4375 7.75,-6.8125 17.96875,-10.21875 30.65625,-10.21875 13.4375,0 24.15625,3.65625 32.15625,10.96875 8,7.3125 12,16.15625 12,26.53125 0,6 -1.40625,11.53125 -4.21875,16.59375 -2.8125,5.0625 -8.3125,11.21875 -16.5,18.46875 -5.5,4.875 -9.09375,8.46875 -10.78125,10.78125 -1.6875,2.3125 -2.9375,4.96875 -3.75,7.96875 -0.8125,3 -1.28125,7.875 -1.40625,14.625 h -4.0547 -4.0547 z"
             id="path4079-9-3"
             sodipodi:nodetypes="cscccsscsscccsssscsscccc" />
          <path
             style="color:#000000;-inkscape-font-specification:Arial;fill:#000000;stroke:none;-inkscape-stroke:none"
             d="m 214.73437,337.33008 c -12.82751,0 -23.26287,3.4618 -31.17187,10.41406 h -0.002 l -0.002,0.002 c -7.85,6.95651 -12.55366,16.97875 -14.13281,29.92774 l -0.0937,0.77929 18.87109,2.24415 0.11719,-0.74415 c 1.48306,-9.4545 4.59029,-16.30566 9.23047,-20.64453 4.67057,-4.36728 10.44063,-6.53906 17.46484,-6.53906 7.26218,0 13.30729,2.40945 18.29688,7.27734 l 0.002,0.002 0.002,0.002 c 5.00027,4.81734 7.44726,10.32867 7.44726,16.6875 0,3.4991 -0.83746,6.69553 -2.52148,9.64258 -1.6573,2.90027 -5.42877,7.01333 -11.27539,12.17578 -5.82582,5.13674 -9.87005,9.05062 -12.17578,11.80469 h -0.002 v 0.002 c -3.10405,3.73754 -5.37088,7.46336 -6.7832,11.18359 -1.91908,4.92565 -2.86719,10.74261 -2.86719,17.44141 0,1.13948 0.0331,2.83037 0.0957,5.08399 l 0.16441,32.73741 h 0.76171 16.98633 l -0.12931,-32.74523 c 0.12446,-6.72076 0.60246,-11.56868 1.3789,-14.43554 0.79004,-2.91704 1.99918,-5.48028 3.62696,-7.71094 1.60323,-2.19703 5.1842,-5.79564 10.66797,-10.65625 8.22187,-7.28044 13.77204,-13.47015 16.66406,-18.67578 2.87622,-5.1772 4.31836,-10.85042 4.31836,-16.97266 0,-10.57608 -4.11987,-19.67257 -12.25586,-27.10937 -8.161,-7.45967 -19.10419,-11.17383 -32.6836,-11.17383 z m 0,1.56445 c 13.29558,0 23.78993,3.59835 31.62891,10.76367 7.86399,7.18818 11.74414,15.78118 11.74414,25.95508 0,5.87775 -1.37036,11.2651 -4.11914,16.21289 -2.73298,4.91936 -8.18282,11.04412 -16.33594,18.26367 -5.51622,4.88938 -9.12277,8.47828 -10.89453,10.90625 -1.74721,2.39434 -3.03808,5.14166 -3.87304,8.22461 -0.81144,2.99608 -1.24451,7.72101 -1.39258,14.04688 H 206.7832 c -0.0449,-1.76243 -0.0781,-3.33658 -0.0781,-4.2793 0,-6.55118 0.9269,-12.1737 2.75781,-16.87305 l 0.002,-0.002 0.002,-0.004 c 1.33761,-3.52643 3.50564,-7.11007 6.52343,-10.74414 l 0.002,-0.002 c 2.19456,-2.62091 6.21178,-6.52061 12.00976,-11.63281 5.90337,-5.21255 9.75691,-9.34754 11.59961,-12.57227 1.81597,-3.17795 2.72852,-6.66903 2.72852,-10.41992 0,-6.76438 -2.67684,-12.75373 -7.92383,-17.81055 l -0.002,-0.002 c -5.26005,-5.13079 -11.77684,-7.7207 -19.38868,-7.7207 -7.35076,0 -13.58073,2.32823 -18.53515,6.96094 -4.849,4.53412 -7.98365,11.52805 -9.54883,20.80468 l -15.80273,-1.8789 c 1.63924,-12.27246 6.10626,-21.64935 13.46875,-28.17383 7.59059,-6.67082 17.59105,-10.02344 30.13671,-10.02344 z"
             id="path4084-6-4"
             sodipodi:nodetypes="ccccccccssscssscccccscccccsscssscccssscssccsccccccssssssccccc" />
        </g>
      </g>
      <rect
         style="fill:#000000;fill-opacity:1;stroke:#000000;stroke-width:0.389984;stroke-opacity:1"
         id="rect4188-6-3"
         width="4.2900162"
         height="4.2900162"
         x="1.3380377"
         y="20.347244" />
      <path
         id="path4086-80-0"
         style="font-size:192px;font-family:Arial;-inkscape-font-specification:Arial;white-space:pre;shape-inside:url(#rect790-3);stroke:#000000;stroke-width:0.413999"
         d="m -1.653952,2.682858 -7.9904334,10.427477 v 4.092782 H 6.131395 10.596239 11.278368 V 13.110335 H 10.596239 6.131395 -5.253956 l 3.546315,-5.080977 z"
         sodipodi:nodetypes="cccccccccccc" />
    </g>
  </g>
</svg>
